<svg xmlns="http://www.w3.org/2000/svg" viewBox="0 0 1061.29 1755.21"><defs><style>.cls-1{fill:#4b1d30;}</style></defs><title>ico-fono</title><g id="Capa_2" data-name="Capa 2"><g id="Capa_1-2" data-name="Capa 1"><rect class="cls-1" y="346.96" width="1061.29" height="979.65"/><path class="cls-1" d="M0,1510.3C0,1643,116.33,1755.21,249,1755.21H810.25c134.71,0,251-112.25,251-244.91v-102H0Zm765.35-20.41h102a40.82,40.82,0,1,1,0,81.64h-102a40.82,40.82,0,0,1,0-81.64Zm-285.73,0h102a40.82,40.82,0,1,1,0,81.64h-102a40.82,40.82,0,0,1,0-81.64Zm-285.73,0H295.94a40.82,40.82,0,1,1,0,81.64H193.89a40.82,40.82,0,0,1,0-81.64Z"/><path class="cls-1" d="M1061.29,244.91C1061.29,112.25,945,0,812.3,0H249C116.33,0,0,112.25,0,244.91v20.41H1061.29ZM530.65,183.68a40.82,40.82,0,1,1,40.81-40.81A40.93,40.93,0,0,1,530.65,183.68Z"/></g></g></svg>