<svg xmlns="http://www.w3.org/2000/svg" viewBox="0 0 14173.12 14173.23"><defs><style>.cls-1{fill:#475993;}</style></defs><title>ico-fb</title><g id="Capa_2" data-name="Capa 2"><g id="Layer_1" data-name="Layer 1"><path class="cls-1" d="M12263.22,0H1909.87C855.1,0,0,855.06,0,1909.87V12263.29c0,1054.81,855.06,1909.87,1909.87,1909.87H7016.09l8.71-5064.72H5709c-171,0-309.78-138.27-310.44-309.27l-6.31-1632.57c-.66-171.93,138.54-311.66,310.48-311.66H7016.13V5277.46c0-1830.64,1118.05-2827.44,2751.1-2827.44h1340.05c171.45,0,310.48,139,310.48,310.48V4137.09c0,171.41-138.93,310.38-310.31,310.48l-822.37.38C9397,4448,9225,4870,9225,5489.31V6855h1951.48c185.94,0,330.21,162.36,308.3,347l-193.5,1632.57c-18.52,156.23-151,273.94-308.3,273.94H9233.71L9225,14173.23h3038.29c1054.77,0,1909.83-855.06,1909.83-1909.84V1909.87C14173.09,855.06,13318,0,12263.22,0Z"/></g></g></svg>