<svg xmlns="http://www.w3.org/2000/svg" viewBox="0 0 2530.56 2551.18"><defs><style>.cls-1{fill:#4b1d30;}</style></defs><title>ico-wasap</title><g id="Capa_2" data-name="Capa 2"><g id="Layer_1" data-name="Layer 1"><path class="cls-1" d="M1203.42,1.48C529.66,33.56-2,594.67,0,1269.2c.62,205.44,50.22,399.35,137.71,570.69L3.39,2492c-7.27,35.27,24.54,66.16,59.58,57.86l638.95-151.38a1259.39,1259.39,0,0,0,543.68,132c688.65,10.51,1262.86-536.29,1284.33-1224.69C2552.94,567.82,1943.91-33.79,1203.42,1.48Zm762.4,1964.35C1778.7,2153,1529.91,2256,1265.28,2256c-155,0-303.3-34.76-440.94-103.32l-89-44.33-391.74,92.81,82.46-400.29L382.24,1715c-71.45-139.94-107.68-291.26-107.68-449.75,0-264.63,103.05-513.42,290.17-700.55A992.48,992.48,0,0,1,1265.3,274.55c264.63,0,513.41,103.06,700.53,290.18S2256,1000.64,2256,1265.26A992.52,992.52,0,0,1,1965.82,1965.83Z"/><path class="cls-1" d="M1879.34,1539.68l-245.08-70.38a91.34,91.34,0,0,0-90.4,23.82l-59.93,61.06a89.29,89.29,0,0,1-97.07,20.49c-115.93-46.92-359.82-263.76-422.1-372.23a89.26,89.26,0,0,1,7.07-99l52.32-67.69a91.34,91.34,0,0,0,11.27-92.8L932.31,709.78c-24.7-55.85-96.08-72.11-142.71-32.67C721.2,735,640,822.87,630.17,920.27c-17.4,171.71,56.25,388.18,334.73,648.09,321.72,300.28,579.36,340,747.1,299.32,95.15-23,171.18-115.43,219.17-191.08C1963.88,1625,1938.05,1556.53,1879.34,1539.68Z"/></g></g></svg>