<svg xmlns="http://www.w3.org/2000/svg" viewBox="0 0 14173.23 11789.5"><defs><style>.cls-1{fill:#76a9ea;}</style></defs><title>ico-tw</title><g id="Capa_2" data-name="Capa 2"><g id="Layer_1" data-name="Layer 1"><path class="cls-1" d="M13947.81,1371.48A5611.84,5611.84,0,0,1,12970.57,1701c369.61-351.22,647.51-790.53,804.29-1280.88h0c44.75-140-107.3-261-233.7-186.08h0a5639.2,5639.2,0,0,1-1494,617.24,381.14,381.14,0,0,1-93.37,11.61c-95.58,0-188.5-35.49-261.59-99.9C11133.9,271,10415.86,0,9670.39,0c-322.58,0-648.27,50.28-968,149.45C7711.56,456.76,6947.08,1274,6707.23,2282.38c-90,378.21-114.34,756.77-72.46,1125.13,4.8,42.33-15.21,71.88-27.54,85.73a113.27,113.27,0,0,1-84.28,38.22c-3.56,0-7.23-.17-10.85-.51C4343.3,3329.45,2387.59,2284.59,1005.18,588.87h0C934.69,502.37,799.5,513,743.32,609.36h0C472.61,1073.79,329.55,1605,329.55,2145.5c0,828.37,332.8,1609,910.89,2178.12a2738.52,2738.52,0,0,1-697-269.81h0c-105.74-58.75-235.84,16.76-237.33,137.7h0C291,5422.11,1011.51,6517.12,2090.82,7010.2q-32.61.77-65.24.76a2749.15,2749.15,0,0,1-514.81-49.11h0c-119.08-22.74-219.12,90.23-182.15,205.68h0c350.33,1093.72,1292,1899.91,2419,2083-935.29,627.85-2024.45,959-3158.06,959l-353.4-.21c-108.88,0-201,71-228.72,176.44-27.34,103.88,23,213.45,115.86,267.46,1277.39,743.4,2734.44,1136.3,4214.25,1136.3,1295.33,0,2507-257.06,3601.37-764C8942.16,10560.77,9828.73,9896.43,10574,9051c694.22-787.59,1237.09-1696.79,1613.48-2702.29,358.79-958.48,548.43-1981.19,548.43-2957.6v-46.51c0-156.78,70.87-304.3,194.58-404.72a6039.39,6039.39,0,0,0,1215-1333.54h0c88.91-133-51.32-299.7-197.63-234.81Z"/></g></g></svg>