<svg xmlns="http://www.w3.org/2000/svg" xmlns:xlink="http://www.w3.org/1999/xlink" viewBox="0 0 14173.23 14173.23"><defs><style>.cls-1{fill:url(#linear-gradient);}.cls-2{fill:url(#linear-gradient-3);}</style><linearGradient id="linear-gradient" x1="12.01" y1="14181.39" x2="12.01" y2="13636.24" gradientTransform="translate(6777.77 -350629.68) scale(25.72)" gradientUnits="userSpaceOnUse"><stop offset="0" stop-color="#e09b3d"/><stop offset="0.3" stop-color="#c74c4d"/><stop offset="0.6" stop-color="#c21975"/><stop offset="1" stop-color="#7024c4"/></linearGradient><linearGradient id="linear-gradient-3" x1="154.8" y1="14181.39" x2="154.8" y2="13636.24" xlink:href="#linear-gradient"/></defs><title>ico-ig</title><g id="Capa_2" data-name="Capa 2"><g id="Layer_1" data-name="Layer 1"><path class="cls-1" d="M9951,0H4222.28C1894.11,0,0,1894.11,0,4222.28V9951c0,2328.17,1894.11,4222.28,4222.28,4222.28H9951c2328.17,0,4222.28-1894.11,4222.28-4222.28V4222.28C14173.21,1894.11,12279.1,0,9951,0ZM12747.4,9951c0,1544.43-1252,2796.45-2796.45,2796.45H4222.28c-1544.42,0-2796.45-1252-2796.45-2796.45V4222.28c0-1544.45,1252-2796.45,2796.45-2796.45H9951c1544.43,0,2796.45,1252,2796.45,2796.45V9951Z"/><path class="cls-1" d="M7086.62,3420.91c-2021.28,0-3665.71,1644.43-3665.71,3665.68s1644.43,3665.7,3665.71,3665.7,3665.7-1644.43,3665.7-3665.7S9107.89,3420.91,7086.62,3420.91Zm0,5905.58c-1237.06,0-2239.88-1002.82-2239.88-2239.87S5849.58,4846.74,7086.62,4846.74,9326.49,5849.56,9326.49,7086.62,8323.65,9326.49,7086.62,9326.49Z"/><circle class="cls-2" cx="10759.42" cy="3448.44" r="878.38"/></g></g></svg>