<svg xmlns="http://www.w3.org/2000/svg" viewBox="0 0 1876.02 1236.94"><defs><style>.cls-1{fill:#4b1d30;}</style></defs><title>ico-email</title><g id="Capa_2" data-name="Capa 2"><g id="Capa_1-2" data-name="Capa 1"><path class="cls-1" d="M187.6,0C83.91,0,0,83.08,0,185.54V1051.4c0,102.48,83.91,185.54,187.6,185.54H1688.42c103.67,0,187.6-83.06,187.6-185.54V185.54C1876,83.08,1792.11,0,1688.42,0Zm82,280.37a61.47,61.47,0,0,1-7.63-87.2c22.06-26.18,61.64-29.48,88-7.63l588,488,588-488c26.38-21.85,66-18.55,88,7.63a61.47,61.47,0,0,1-7.63,87.2L994.91,788,975.34,804a56.14,56.14,0,0,1-74.64,0L881.11,788ZM975.34,804,994.91,788a58.68,58.68,0,0,1-6.19,8.43A62.69,62.69,0,0,1,938,818.23,62.72,62.72,0,0,0,975.34,804Zm-74.64,0A62.57,62.57,0,0,0,938,818.21a62.63,62.63,0,0,1-50.71-21.85,61.43,61.43,0,0,1-6.19-8.43ZM269.65,956.38,602.59,680.31l97.1,80.61L350.05,1051.19a62.81,62.81,0,0,1-88-7.63A61.44,61.44,0,0,1,269.65,956.38Zm906.7-195.46,97.08-80.61,332.94,276.07a61.43,61.43,0,0,1,7.62,87.18c-22,26.2-61.64,29.69-88,7.63Z"/></g></g></svg>