<svg xmlns="http://www.w3.org/2000/svg" viewBox="0 0 226.01 221.69"><defs><style>.cls-1{fill:#6a2a45;}.cls-2{fill:#fff;}</style></defs><title>logo</title><g id="Capa_2" data-name="Capa 2"><g id="Capa_1-2" data-name="Capa 1"><ellipse class="cls-1" cx="112.33" cy="108.18" rx="106.33" ry="104.33"/><path class="cls-1" d="M185.54,28.46c-1.65-1.6-3.39-3.12-5.16-4.6a32.12,32.12,0,0,1,2.4,2.54A11.16,11.16,0,0,0,185.54,28.46Zm-11.15-9.3-.93-.51,1.92,1.23Zm-9.26-5.56c1.83,1.08,3.54,2.18,5.25,3.13A42.77,42.77,0,0,0,165.13,13.6Zm8.29,5,0,0-3.08-1.92a33.08,33.08,0,0,1,2.67,2.21C172.54,18.39,172.34,18,173.42,18.62Zm-.37.32c.37.4.93.93,1.3,1.29C174,19.82,173.54,19.4,173.05,18.94ZM142,5.88c-5.27-1.73-19-3-11.12-1.33a106,106,0,0,1,29,10.62A104.81,104.81,0,0,1,182,30.11a60.65,60.65,0,0,1,5,5.46A83.56,83.56,0,0,0,180.4,28c-3.29-3.5-8.62-6.11-14.88-9.91-1.05-.52-.22-1.32-2.32-2.33-4.82-2.56-9.14-4.26-13.79-6.24C147.24,8.83,144.27,6.41,142,5.88ZM180.4,27c-4.35-3.44-16.83-9.41-10-5.1a105.84,105.84,0,0,1,23.53,20,104.59,104.59,0,0,1,15.59,21.68,60,60,0,0,1,2.83,6.87,82.89,82.89,0,0,0-3.63-9.37c-1.88-4.42-6-8.71-10.52-14.45-.8-.85.25-1.31-1.37-3-3.63-4.07-7.1-7.17-10.78-10.63C184.29,31.57,182.35,28.26,180.4,27Zm28.7,35c2.55,6,4.92,11.62,7.11,17.48.16-.47.54-.51.09-2.24-.55-1.06-1.67-3.19-1.67-3.18a45.7,45.7,0,0,0-7.21-14.8l.76,2.42C209.81,64.35,210.22,64.56,209.1,61.94Zm5,14.52,0-.13-1.27-3.45-.05.16ZM130.93,2.8c-.27-.09-.57-.19-1-.29Zm84.21,77.93c-.93,15.43,5,27.73-4.65,56.93,6.41-20.11.31,17-15,30.92-9.71,10.22-21.87,21.73-37.27,30-15.24,8.4-33.69,13.25-50.66,12.08A109.61,109.61,0,0,1,80.43,206C30.83,189.91-2.69,136.54,12.2,82.15,16.05,68.07,21.32,56,28.47,45.73c5.33-7.48,12.9-13.83,18.7-18.36A125.61,125.61,0,0,1,74,11.36,106.15,106.15,0,0,0,47.62,26.73c-6.23,5.06,3.36-4.75,8-7.63,1.85-1.41,5.59-2.1,7.52-3.32,4.43-2.23,8.43-4.53,13.44-6.54,2.11-1,2.19.15,3.25-.29,6.86-2.38,12.22-4.77,17-5.09a87.66,87.66,0,0,1,9.94-.32c2,0,3.94,0,6,0,1.3,0,2.65-.16,4-.13a100,100,0,0,1,31.07,4.82l-.09-.14c-5.55-1.92-11-3.57-16.85-5.32,1.54.5.87.61-1.81.2l-2.3-1c5.52.5,11.06,1.55,15.83,3.87l3.49.74c1.6.75,1.39,1.07,1.64,1.48l3.44,1.22c-2.13-1.55-9.69-4.86-9.72-4.8A111.72,111.72,0,0,0,96.71.8a12,12,0,0,1-3.32.81c-1.14,0-2.29.08-3.42.2-2.1.35-4.16.89-6.23,1.32l-2.14.68,0,0c-1.12.45-.73.52,0,.48s1.57-.18,2.23-.2c-.42,0-1.5.16-2.23.2a33.38,33.38,0,0,0-3.38.63c-1,.36-1.94.72-3,1.07l2.38-.9.57-.17L80.91,4h0l.68-.23,1-.38A114.71,114.71,0,0,0,68.76,7.92c-1,.42-2,.89-2.76,1.29-3.16,1.53-6.15,3.32-8.34,3.84L55.4,14.32l.48-.16c-.35.16-.65.3-.9.4A97.81,97.81,0,0,0,45.7,20.5,108.78,108.78,0,0,0,29.21,35c-33,35.13-39.09,89.18-12.94,132.41a114.15,114.15,0,0,0,60.87,48.74c49.88,16.63,104.11-5.05,133-49.92,5.63-8.61,11.62-22.39,14.12-36.91a113.53,113.53,0,0,0,.07-39C216.69,64.72,214.84,79.88,215.14,80.73ZM35.48,29.86c-2.36,2.55-5.61,5.61-8.34,8A29.87,29.87,0,0,1,35.48,29.86Z"/><path class="cls-1" d="M164.94,6.14a4.94,4.94,0,1,1-6.19-3.25A5,5,0,0,1,164.94,6.14Z"/><path class="cls-1" d="M211.05,78.47a2.58,2.58,0,1,1-3.23-1.7A2.57,2.57,0,0,1,211.05,78.47Z"/><path class="cls-1" d="M201.83,37.49a2.36,2.36,0,1,1-3-1.55A2.36,2.36,0,0,1,201.83,37.49Z"/><path class="cls-2" d="M93.72,61.18c0,.21-.43.33-1.28.35a2,2,0,0,0-1.9.94A33.33,33.33,0,0,0,89.1,66.3q-1.69,5.15-3,8.75Q83.84,81.22,82,87c-.1.33-.23.49-.39.49s-.25-.12-.36-.37-.46-1.12-1-2.62q-1-2.92-2.28-5.9C77.3,77,76.67,75.4,76,73.74Q73.43,80.09,70.85,87c-.1.3-.23.45-.38.45s-.28-.21-.45-.64q-1.17-2.78-8.64-23A10.46,10.46,0,0,0,60.59,62q-.27-.36-1.32-.39c-1.2,0-1.8-.23-1.8-.53s.2-.34.6-.34a2.68,2.68,0,0,1,.45,0c1.33.08,2.76.11,4.28.11.3,0,.82,0,1.56-.07s1.7-.08,2.88-.08h.41c.42,0,.64.12.64.35s-.39.43-1.16.46c-1.54.05-2.31.25-2.31.61q0,1.05,6.9,19.58c1.68-4.23,2.92-7.35,3.75-9.35l-3.71-9.62a1.84,1.84,0,0,0-.7-1,3.53,3.53,0,0,0-1.45-.27c-.71,0-1.06-.13-1.06-.33s.26-.42.79-.42.89,0,1.46.08,1.58.07,3,.07h7c.92,0,2,0,3.34-.12a4,4,0,0,1,.53,0c.6,0,.9.14.9.4s-.22.36-.64.36h-.64a5.65,5.65,0,0,0-2.55.45c-.26.12-.72,1-1.39,2.7-.31.7-.81,1.89-1.52,3.56l-.66,1.7c.17.5.72,1.89,1.64,4.17q1.78,4.35,2.94,7.46,2.11-6.08,5-14.38a38.11,38.11,0,0,0,1.52-4.91c0-.47-.44-.71-1.32-.71-1.22,0-1.84-.14-1.84-.42s.25-.38.75-.38a8.82,8.82,0,0,1,1,0,11.9,11.9,0,0,0,1.5.1h3a4,4,0,0,1,1.24.09A.27.27,0,0,1,93.72,61.18Zm-15.89.43H76.74c-.9,0-1.35.21-1.35.49,0,0,.73,2.23,2.21,6.53.57-1.25,1.24-2.91,2-5,.11-.28.26-.64.47-1.09l.08-.3C80.16,61.83,79.38,61.61,77.83,61.61Z"/><path class="cls-2" d="M106.45,86.64c0,.22-.15.32-.45.32h-.37a50.74,50.74,0,0,0-5.11-.11c-.63,0-1.26,0-1.88.08q-.49,0-1.5,0c-.33,0-.49-.11-.49-.33s.32-.32,1-.34c1,0,1.59-.15,1.77-.36a4.92,4.92,0,0,0,.26-2.17V63.94a5.44,5.44,0,0,0-.19-2.07c-.15-.25-.85-.4-2.09-.45-.48,0-.72-.11-.72-.26s.15-.3.45-.3h5.11l2.2,0,1.44,0c.4,0,.6.1.6.32s-.56.31-1.67.35c-.64,0-1,.14-1.16.34a3.5,3.5,0,0,0-.21,1.58V83.51a6.53,6.53,0,0,0,.19,2.33,4.5,4.5,0,0,0,2.44.48C106.31,86.32,106.45,86.43,106.45,86.64Z"/><path class="cls-2" d="M134.59,61.23c0,.25-.32.37-.94.34h-1.51c-.4,0-.63.07-.71.21a3.92,3.92,0,0,0-.11,1.25V84.64c0,1.32,0,2.1,0,2.32s-.1.34-.22.34-.33-.14-.53-.41l-4.8-7q-4.17-6.15-10.15-15.36v21a.66.66,0,0,0,.57.63,16.22,16.22,0,0,0,2.54.16c.33,0,.49.11.49.31s-.32.37-1,.37c-.23,0-.94,0-2.14-.11-.4,0-.79,0-1.17,0l-.65.08c-.47,0-1.18.07-2.13.07h-.37c-.58,0-.87-.11-.87-.34s.25-.34.75-.34a7.27,7.27,0,0,0,2.58-.28c.24-.16.35-.69.35-1.6V65.9c0-2.08-.42-3.39-1.27-3.92a4.37,4.37,0,0,0-2.14-.37c-.65,0-1-.13-1-.4s.19-.35.56-.35,1.14,0,1.92.07l1.24.08,1,0c.83,0,1.63,0,2.4-.11l13,19.34V63.49q0-1.17,0-1.41a.52.52,0,0,0-.3-.38,6.44,6.44,0,0,0-1.81-.13c-.9,0-1.35-.11-1.35-.34s.3-.37.9-.37h6C134.31,60.86,134.59,61,134.59,61.23Z"/><path class="cls-2" d="M159.19,80.92c0,.1,0,.71-.08,1.84S159,85,159,86v1.24Q155.37,87,144.46,87h-4.69c-.48,0-.71-.1-.71-.3s.07-.21.22-.24l1.43-.1c.65,0,1-.19,1.18-.41a4.37,4.37,0,0,0,.21-1.77V63c0-.73-.11-1.16-.32-1.3a5.5,5.5,0,0,0-2.05-.2c-.4,0-.6-.11-.6-.32s.28-.32.83-.32h15.92a13.15,13.15,0,0,0,2.07-.15c.05,1.07.16,2.56.34,4.47l.15,1.61a3.11,3.11,0,0,1,0,.49c0,.25-.12.38-.34.38s-.48-.32-.6-1c-.48-2.27-1.26-3.7-2.33-4.31-.8-.45-2.91-.68-6.31-.68h-3.08v11h.9q4.2,0,5.13-.63c.61-.43,1-1.67,1.25-3.72.05-.53.19-.79.42-.79s.41.22.41.67,0,1.12-.07,2-.08,1.55-.08,2q0,4,.12,5.52c0,.25,0,.46,0,.64s-.14.48-.41.48-.29-.1-.36-.31-.16-.91-.31-2.09A3,3,0,0,0,151,73.78a15.34,15.34,0,0,0-3.51-.23h-1.68V86.14q8.27,0,9.69-.34,2.48-.55,2.82-4.75c0-.61.21-.92.48-.92S159.19,80.39,159.19,80.92Z"/><path class="cls-2" d="M55.57,103.19c0,.33-.15.49-.45.49s-.51-.33-.64-1l-.15-1.35a6.4,6.4,0,0,0-.86-2.29,3.71,3.71,0,0,0-2.59-1.58A8.51,8.51,0,0,0,49,97.29c-1.18,0-1.89.06-2.14.08v22.68c0,.91.24,1.47.71,1.69a6.52,6.52,0,0,0,2.1.23c.31,0,.46.13.46.32s-.21.32-.61.32a2.68,2.68,0,0,1-.52,0c-1.5,0-2.57-.07-3.19-.07-.83,0-1.61,0-2.33,0s-1.66.06-2.78.06q-.87,0-.87-.3c0-.23.54-.35,1.62-.38.77,0,1.28-.16,1.5-.49a3.6,3.6,0,0,0,.19-1.54V97.37a18.72,18.72,0,0,0-4.62.37q-2.37.87-2.78,4.62c-.08.75-.25,1.13-.53,1.13s-.45-.26-.45-.79c0-.27,0-.55,0-.83l.08-.86c.07-1.15.18-2.67.33-4.54H36.9l7.67.11q1.35,0,4.2,0L55,96.47q.08,2.1.49,6.23a1,1,0,0,0,0,.28A1.9,1.9,0,0,1,55.57,103.19Z"/><path class="cls-2" d="M81.45,121.45c0,1-.87,1.57-2.63,1.57a5.23,5.23,0,0,1-4.58-2.44,5.76,5.76,0,0,1-.92-2c-.14-.65-.34-2.3-.62-5a4.53,4.53,0,0,0-1.54-3.39,7.45,7.45,0,0,0-4.28-1.08V121c0,.5.4.81,1.2.94.23,0,.8,0,1.73.07.32,0,.49.1.49.3s-.22.34-.64.34H60.83c-.55,0-.83-.11-.83-.34s.37-.27,1.09-.3q1.77,0,1.92-.45a3.62,3.62,0,0,0,.15-1.46V99.32c0-1-.11-1.6-.32-1.8a3.61,3.61,0,0,0-1.93-.34c-.63,0-.94-.11-.94-.34s.2-.37.6-.37l.34,0,5,.12c.5,0,1.2,0,2.11-.05s1.7-.1,2.1-.1A9,9,0,0,1,75.65,98a5.05,5.05,0,0,1,2,4.23,5.35,5.35,0,0,1-2.11,4.34,10.16,10.16,0,0,1-5.71,2c-.22,0-.35.06-.37.11s.12.15.37.15c2.63.45,4.44,1.38,5.43,2.77s1.65,3.91,2,7.55c.2,2.06.91,3.09,2.11,3.09.37,0,.56-.07.56-.22a.1.1,0,0,0,0-.08,1.76,1.76,0,0,1-.18-.68c0-.52.27-.78.82-.78S81.45,120.82,81.45,121.45Zm-7.77-18.82c0-3.58-1.55-5.38-4.66-5.38a3,3,0,0,0-1.69.34,1.42,1.42,0,0,0-.45,1.2v9.55c2.4,0,4.14-.42,5.2-1.32S73.68,104.65,73.68,102.63Z"/><path class="cls-2" d="M110,122.33c0,.21-.19.32-.56.32a6.56,6.56,0,0,1-.68,0l-4.77-.15-4.77.15a5.1,5.1,0,0,1-.57,0c-.5,0-.75-.13-.75-.4s.34-.43,1-.43q3.3,0,3.3-.66a1.85,1.85,0,0,0-.07-.3l-.31-1-.19-.52q-.34-1.17-1.65-5.15H92c-1.51,4-2.26,6.31-2.26,6.91a.59.59,0,0,0,.46.64c.07,0,.7.07,1.87.15.73,0,1.09.15,1.09.37s-.32.38-1,.38q-1.74,0-4-.15c-.38,0-.77,0-1.17,0a5.5,5.5,0,0,0-1.16.12,2,2,0,0,1-.49.07c-.35,0-.53-.12-.53-.34s.4-.35,1.19-.38a3.51,3.51,0,0,0,1.71-.36,2.14,2.14,0,0,0,.82-1.22q4.83-13.87,7.87-22.28a4.24,4.24,0,0,1,.35-1l.16-.69c.07-.27.17-.41.3-.41s.14.07.19.22q.48,1.47,2.21,6.13,1.35,3.63,6.73,18.29a1.74,1.74,0,0,0,.77,1.08,5.22,5.22,0,0,0,1.93.27C109.71,122,110,122.11,110,122.33Zm-10.18-9c-.4-1.13-1.08-3-2-5.6L96,102.53q-1.57,4.16-3.81,10.8Z"/><path class="cls-2" d="M135.92,96.69c0,.2-.24.32-.71.34a4,4,0,0,0-2.22.49,5.07,5.07,0,0,0-1.16,2.11l-1.28,3.5q-4.62,12.7-6.5,19.48c-.08.3-.2.45-.38.45s-.61-.94-1.24-2.82c-1.12-3.43-2-6-2.62-7.74-.68-1.9-1.67-4.75-3-8.53L115,98.91a3.19,3.19,0,0,0-.83-1.41,2.62,2.62,0,0,0-1.5-.4c-.83,0-1.32,0-1.49-.07a.27.27,0,0,1-.24-.3c0-.23.25-.34.75-.34H112c.45,0,1.23,0,2.35.06l2.38,0,1.45,0c.84,0,2-.06,3.59-.06h.52c.45,0,.68.11.68.34s-.45.39-1.35.41l-2.3.08q-.78,0-.78.51a1.18,1.18,0,0,0,.07.31l.29,1q.07.3,3.67,10.59c.4,1.18,1.17,3.42,2.29,6.74q6.2-17.55,6.19-18.46c0-.57-.62-.84-1.84-.79h-1.17q-.45,0-.45-.33c0-.28.37-.42,1.13-.42H130a14.55,14.55,0,0,0,1.54.11h1.2l2.48-.11C135.69,96.39,135.92,96.49,135.92,96.69Z"/><path class="cls-2" d="M159.25,116.52c0,.1,0,.72-.08,1.85s-.07,2.2-.07,3.23v1.23q-3.69-.22-14.58-.22h-4.69q-.72,0-.72-.3a.23.23,0,0,1,.23-.24l1.43-.1c.65,0,1-.19,1.18-.41a4.37,4.37,0,0,0,.21-1.77V98.61c0-.73-.11-1.16-.32-1.3a5.44,5.44,0,0,0-2.05-.21c-.4,0-.6-.1-.6-.32s.27-.31.82-.31h15.93a13.24,13.24,0,0,0,2.07-.15q.08,1.61.33,4.47l.16,1.61a3.28,3.28,0,0,1,0,.49c0,.25-.11.37-.34.37s-.47-.31-.6-.94c-.47-2.27-1.25-3.7-2.33-4.31q-1.2-.67-6.31-.68h-3.08v11h.91c2.8,0,4.51-.21,5.12-.64s1-1.66,1.26-3.71c.05-.53.19-.79.41-.79s.42.22.42.67,0,1.12-.08,2-.07,1.54-.07,2c0,2.69,0,4.53.12,5.53,0,.25,0,.46,0,.64s-.14.48-.41.48-.3-.1-.36-.32-.17-.9-.32-2.08a3,3,0,0,0-1.83-2.74,15.4,15.4,0,0,0-3.51-.23h-1.69v12.59a72.7,72.7,0,0,0,9.7-.34q2.48-.55,2.81-4.75c.05-.62.21-.92.49-.92S159.25,116,159.25,116.52Z"/><path class="cls-2" d="M183.81,119.6c0,.66,0,1.73-.11,3.23h-.41c-.15,0-.52,0-1.09-.07s-1.23-.08-1.95-.08l-15.6-.11c-.42,0-.63-.11-.63-.34s.33-.28,1-.33a3.73,3.73,0,0,0,1.71-.32c.19-.17.28-.64.28-1.41V99.06c0-.93-.09-1.47-.28-1.62a4.78,4.78,0,0,0-2-.22c-.48,0-.71-.14-.71-.42s.15-.33.45-.33h.33c.83.07,2.47.11,4.93.11.22,0,.66,0,1.31-.06s1.19,0,1.62,0h.41c.45,0,.68.12.68.37a.26.26,0,0,1-.21.28,9.1,9.1,0,0,1-1.3.1c-.72,0-1.16.14-1.29.35a5.11,5.11,0,0,0-.21,2v22.16c.68,0,1.62,0,2.82,0a28.21,28.21,0,0,0,6.19-.46,3.5,3.5,0,0,0,2.45-1.69,8.5,8.5,0,0,0,.75-3.34c0-.32.17-.49.43-.49s.46.19.43.57v3.26Z"/><path class="cls-2" d="M73.34,149.8c0-.05,0,.29-.08,1-.1,1.45-.15,2.85-.15,4.21,0,.15,0,.45.08.92a16,16,0,0,1,.07,1.67V158c0,.33-.1.49-.3.49s-.37-.18-.52-.56a3.93,3.93,0,0,0-1-1.62,9.54,9.54,0,0,1-6.5,2.37,12,12,0,0,1-9.15-3.85,13.59,13.59,0,0,1-3.62-9.71,13.92,13.92,0,0,1,3.32-9.63A10.94,10.94,0,0,1,64,131.7a12,12,0,0,1,3.07.32,12.9,12.9,0,0,1,2.83,1.29,2.81,2.81,0,0,0,1.24.49c.23,0,.44-.2.64-.6.33-.7.59-1,.79-1a.27.27,0,0,1,.3.3,2.78,2.78,0,0,1-.08.49,36.51,36.51,0,0,0-.41,6.76,1.71,1.71,0,0,1-.11.83.44.44,0,0,1-.3.11c-.25,0-.42-.24-.49-.72a12.87,12.87,0,0,0-1.39-4.47,6.3,6.3,0,0,0-5.79-3,6,6,0,0,0-4.8,2q-3.19,3.65-3.2,10.67,0,6.27,2.63,9.72a7.27,7.27,0,0,0,6.09,3,6.87,6.87,0,0,0,3.57-1,6.56,6.56,0,0,0,2.48-2.61,15.39,15.39,0,0,0,1.39-4.17q.15-.9.48-.9C73.21,149.24,73.34,149.43,73.34,149.8Z"/><path class="cls-2" d="M103.65,157.84c0,.23-.23.34-.7.34H94.78c-.49,0-.74-.1-.74-.3s.58-.34,1.74-.41c.62-.05,1-.16,1.08-.32a5.35,5.35,0,0,0,.14-1.74V144.47H85.7V155.1a4.19,4.19,0,0,0,.26,2,3.21,3.21,0,0,0,1.77.41c.65.05,1,.17,1,.34s-.25.34-.75.34H79.8q-.75,0-.75-.3c0-.2.25-.32.75-.37l1-.08a1.49,1.49,0,0,0,1.05-.37A9.61,9.61,0,0,0,82,155v-19.8a6.3,6.3,0,0,0-.17-2c-.11-.2-.51-.31-1.18-.33l-1.37-.12c-.14,0-.21-.13-.21-.32s.16-.32.49-.32l.64,0c.62,0,2.1.08,4.43.08q1.92,0,2.67-.06a3.07,3.07,0,0,1,.67-.06c.45,0,.68.13.68.38s-.41.34-1.22.34-1.3.09-1.47.28a3.72,3.72,0,0,0-.24,1.79v8.67H97v-8.1a5.07,5.07,0,0,0-.3-2.36c-.2-.24-.9-.34-2.1-.32-.37,0-.56-.11-.56-.34s.21-.34.64-.34h8.19c.52,0,.78.12.78.34s-.55.35-1.65.38a2.45,2.45,0,0,0-.71.07.65.65,0,0,0-.47.42,8.18,8.18,0,0,0-.1,1.76v20a6.25,6.25,0,0,0,.19,2.1c.25.27,1,.41,2.15.41C103.46,157.49,103.65,157.59,103.65,157.84Z"/><path class="cls-2" d="M118.57,157.86c0,.21-.15.32-.46.32h-.37a50.41,50.41,0,0,0-5.11-.11c-.63,0-1.25,0-1.88.07-.32,0-.82,0-1.5,0-.33,0-.49-.11-.49-.34s.33-.31,1-.34c1,0,1.59-.14,1.76-.35a4.73,4.73,0,0,0,.27-2.17V135.16a5.68,5.68,0,0,0-.19-2.07c-.16-.25-.85-.4-2.1-.45q-.72,0-.72-.27c0-.2.15-.3.46-.3h5.11l2.19,0,1.44,0c.4,0,.61.11.61.32s-.56.31-1.68.36c-.63,0-1,.14-1.16.34a3.5,3.5,0,0,0-.21,1.58v20.05a6.72,6.72,0,0,0,.19,2.33,4.4,4.4,0,0,0,2.44.49C118.43,157.54,118.57,157.65,118.57,157.86Z"/><path class="cls-2" d="M143.36,155.21c0,.65,0,1.73-.12,3.23h-.41c-.15,0-.51,0-1.09-.07s-1.22-.08-2-.08l-15.59-.11c-.43,0-.64-.11-.64-.34s.34-.29,1-.34a3.68,3.68,0,0,0,1.7-.31c.19-.17.29-.64.29-1.41V134.67c0-.93-.1-1.47-.29-1.62a4.72,4.72,0,0,0-2-.22c-.47,0-.71-.14-.71-.42s.15-.34.45-.34h.34q1.25.12,4.92.12c.23,0,.66,0,1.32-.06s1.18-.06,1.61-.06h.41c.45,0,.68.13.68.38a.26.26,0,0,1-.21.28,8.89,8.89,0,0,1-1.29.1c-.73,0-1.16.14-1.3.35a5.17,5.17,0,0,0-.2,2v22.17c.67,0,1.61,0,2.81,0a29.15,29.15,0,0,0,6.2-.45,3.48,3.48,0,0,0,2.44-1.69,8.16,8.16,0,0,0,.75-3.34c0-.33.17-.49.43-.49s.46.19.44.57v3.26Z"/><path class="cls-2" d="M167.1,152.13c0,.1,0,.72-.08,1.84s-.07,2.21-.07,3.23v1.24q-3.69-.23-14.58-.22h-4.69q-.72,0-.72-.3a.23.23,0,0,1,.23-.24l1.43-.1c.65-.05,1-.19,1.18-.42a4.3,4.3,0,0,0,.21-1.77V134.22c0-.73-.11-1.16-.32-1.3a5.44,5.44,0,0,0-2.05-.21c-.4,0-.6-.1-.6-.32s.27-.32.82-.32h15.93a13.24,13.24,0,0,0,2.07-.15c0,1.08.16,2.57.34,4.47l.15,1.62a3.19,3.19,0,0,1,0,.49c0,.25-.11.37-.34.37s-.47-.31-.6-.94c-.47-2.27-1.25-3.71-2.32-4.31-.81-.46-2.91-.68-6.32-.68h-3.08v11h.91c2.8,0,4.51-.21,5.12-.64s1-1.66,1.26-3.72c.05-.52.19-.78.41-.78s.42.22.42.67,0,1.12-.08,2-.07,1.54-.07,2c0,2.68,0,4.52.12,5.53q0,.38,0,.63c0,.33-.14.49-.41.49s-.3-.1-.36-.32-.17-.91-.32-2.08a3,3,0,0,0-1.83-2.74,15.4,15.4,0,0,0-3.51-.23h-1.69v12.58a73.6,73.6,0,0,0,9.7-.33q2.47-.56,2.81-4.75c.05-.62.22-.93.49-.93S167.1,151.61,167.1,152.13Z"/></g></g></svg>